<svg width="88" height="24" viewBox="0 0 88 24" fill="none" xmlns="http://www.w3.org/2000/svg">
<path d="M21 11H6.83L10.41 7.41L9 6L3 12L9 18L10.41 16.59L6.83 13H21V11Z" fill="black"/>
<path d="M41.496 16L38.268 12.268V16H36.9V7.66H38.268V11.464L41.508 7.66H43.224L39.6 11.836L43.284 16H41.496ZM50.8538 12.532C50.8538 12.78 50.8378 13.004 50.8058 13.204H45.7538C45.7938 13.732 45.9898 14.156 46.3418 14.476C46.6938 14.796 47.1258 14.956 47.6378 14.956C48.3738 14.956 48.8938 14.648 49.1978 14.032H50.6738C50.4738 14.64 50.1098 15.14 49.5818 15.532C49.0618 15.916 48.4138 16.108 47.6378 16.108C47.0058 16.108 46.4378 15.968 45.9338 15.688C45.4378 15.4 45.0458 15 44.7578 14.488C44.4778 13.968 44.3378 13.368 44.3378 12.688C44.3378 12.008 44.4738 11.412 44.7458 10.9C45.0258 10.38 45.4138 9.98 45.9098 9.7C46.4138 9.42 46.9898 9.28 47.6378 9.28C48.2618 9.28 48.8178 9.416 49.3058 9.688C49.7938 9.96 50.1738 10.344 50.4458 10.84C50.7178 11.328 50.8538 11.892 50.8538 12.532ZM49.4258 12.1C49.4178 11.596 49.2378 11.192 48.8858 10.888C48.5338 10.584 48.0978 10.432 47.5778 10.432C47.1058 10.432 46.7018 10.584 46.3658 10.888C46.0298 11.184 45.8298 11.588 45.7658 12.1H49.4258ZM60.504 9.28C61.024 9.28 61.488 9.388 61.896 9.604C62.312 9.82 62.636 10.14 62.868 10.564C63.108 10.988 63.228 11.5 63.228 12.1V16H61.872V12.304C61.872 11.712 61.724 11.26 61.428 10.948C61.132 10.628 60.728 10.468 60.216 10.468C59.704 10.468 59.296 10.628 58.992 10.948C58.696 11.26 58.548 11.712 58.548 12.304V16H57.192V12.304C57.192 11.712 57.044 11.26 56.748 10.948C56.452 10.628 56.048 10.468 55.536 10.468C55.024 10.468 54.616 10.628 54.312 10.948C54.016 11.26 53.868 11.712 53.868 12.304V16H52.5V9.388H53.868V10.144C54.092 9.872 54.376 9.66 54.72 9.508C55.064 9.356 55.432 9.28 55.824 9.28C56.352 9.28 56.824 9.392 57.24 9.616C57.656 9.84 57.976 10.164 58.2 10.588C58.4 10.188 58.712 9.872 59.136 9.64C59.56 9.4 60.016 9.28 60.504 9.28ZM66.6367 10.372C66.8687 10.052 67.1847 9.792 67.5847 9.592C67.9927 9.384 68.4447 9.28 68.9407 9.28C69.5247 9.28 70.0527 9.42 70.5247 9.7C70.9967 9.98 71.3687 10.38 71.6407 10.9C71.9128 11.412 72.0488 12 72.0488 12.664C72.0488 13.328 71.9128 13.924 71.6407 14.452C71.3687 14.972 70.9927 15.38 70.5127 15.676C70.0407 15.964 69.5167 16.108 68.9407 16.108C68.4287 16.108 67.9727 16.008 67.5727 15.808C67.1807 15.608 66.8687 15.352 66.6367 15.04V16H65.2687V7.12H66.6367V10.372ZM70.6568 12.664C70.6568 12.208 70.5608 11.816 70.3687 11.488C70.1847 11.152 69.9367 10.9 69.6247 10.732C69.3207 10.556 68.9927 10.468 68.6407 10.468C68.2967 10.468 67.9687 10.556 67.6567 10.732C67.3527 10.908 67.1047 11.164 66.9127 11.5C66.7287 11.836 66.6367 12.232 66.6367 12.688C66.6367 13.144 66.7287 13.544 66.9127 13.888C67.1047 14.224 67.3527 14.48 67.6567 14.656C67.9687 14.832 68.2967 14.92 68.6407 14.92C68.9927 14.92 69.3207 14.832 69.6247 14.656C69.9367 14.472 70.1847 14.208 70.3687 13.864C70.5608 13.52 70.6568 13.12 70.6568 12.664ZM73.2456 12.664C73.2456 12 73.3816 11.412 73.6536 10.9C73.9336 10.388 74.3096 9.992 74.7816 9.712C75.2616 9.424 75.7896 9.28 76.3656 9.28C76.8856 9.28 77.3376 9.384 77.7216 9.592C78.1136 9.792 78.4256 10.044 78.6576 10.348V9.388H80.0376V16H78.6576V15.016C78.4256 15.328 78.1096 15.588 77.7096 15.796C77.3096 16.004 76.8536 16.108 76.3416 16.108C75.7736 16.108 75.2536 15.964 74.7816 15.676C74.3096 15.38 73.9336 14.972 73.6536 14.452C73.3816 13.924 73.2456 13.328 73.2456 12.664ZM78.6576 12.688C78.6576 12.232 78.5616 11.836 78.3696 11.5C78.1856 11.164 77.9416 10.908 77.6376 10.732C77.3336 10.556 77.0056 10.468 76.6536 10.468C76.3016 10.468 75.9736 10.556 75.6696 10.732C75.3656 10.9 75.1176 11.152 74.9256 11.488C74.7416 11.816 74.6496 12.208 74.6496 12.664C74.6496 13.12 74.7416 13.52 74.9256 13.864C75.1176 14.208 75.3656 14.472 75.6696 14.656C75.9816 14.832 76.3096 14.92 76.6536 14.92C77.0056 14.92 77.3336 14.832 77.6376 14.656C77.9416 14.48 78.1856 14.224 78.3696 13.888C78.5616 13.544 78.6576 13.144 78.6576 12.688ZM83.5024 7.12V16H82.1344V7.12H83.5024ZM86.2944 8.512C86.0464 8.512 85.8384 8.428 85.6704 8.26C85.5024 8.092 85.4184 7.884 85.4184 7.636C85.4184 7.388 85.5024 7.18 85.6704 7.012C85.8384 6.844 86.0464 6.76 86.2944 6.76C86.5344 6.76 86.7384 6.844 86.9064 7.012C87.0744 7.18 87.1584 7.388 87.1584 7.636C87.1584 7.884 87.0744 8.092 86.9064 8.26C86.7384 8.428 86.5344 8.512 86.2944 8.512ZM86.9664 9.388V16H85.5984V9.388H86.9664Z" fill="black"/>
</svg>
