<svg width="115" height="24" viewBox="0 0 115 24" fill="none" xmlns="http://www.w3.org/2000/svg">
<path d="M2.268 14.896H5.088V16H0.9V7.66H2.268V14.896ZM7.22803 8.512C6.98003 8.512 6.77203 8.428 6.60403 8.26C6.43603 8.092 6.35203 7.884 6.35203 7.636C6.35203 7.388 6.43603 7.18 6.60403 7.012C6.77203 6.844 6.98003 6.76 7.22803 6.76C7.46803 6.76 7.67203 6.844 7.84003 7.012C8.00803 7.18 8.09203 7.388 8.09203 7.636C8.09203 7.884 8.00803 8.092 7.84003 8.26C7.67203 8.428 7.46803 8.512 7.22803 8.512ZM7.90003 9.388V16H6.53203V9.388H7.90003ZM13.4161 9.28C13.9201 9.28 14.3681 9.388 14.7601 9.604C15.1601 9.82 15.4721 10.14 15.6961 10.564C15.9281 10.988 16.0441 11.5 16.0441 12.1V16H14.6881V12.304C14.6881 11.712 14.5401 11.26 14.2441 10.948C13.9481 10.628 13.5441 10.468 13.0321 10.468C12.5201 10.468 12.1121 10.628 11.8081 10.948C11.5121 11.26 11.3641 11.712 11.3641 12.304V16H9.99609V7.12H11.3641V10.156C11.5961 9.876 11.8881 9.66 12.2401 9.508C12.6001 9.356 12.9921 9.28 13.4161 9.28ZM17.6331 12.664C17.6331 12 17.7691 11.412 18.0411 10.9C18.3211 10.388 18.6971 9.992 19.1691 9.712C19.6491 9.424 20.1771 9.28 20.7531 9.28C21.2731 9.28 21.7251 9.384 22.1091 9.592C22.5011 9.792 22.8131 10.044 23.0451 10.348V9.388H24.4251V16H23.0451V15.016C22.8131 15.328 22.4971 15.588 22.0971 15.796C21.6971 16.004 21.2411 16.108 20.7291 16.108C20.1611 16.108 19.6411 15.964 19.1691 15.676C18.6971 15.38 18.3211 14.972 18.0411 14.452C17.7691 13.924 17.6331 13.328 17.6331 12.664ZM23.0451 12.688C23.0451 12.232 22.9491 11.836 22.7571 11.5C22.5731 11.164 22.3291 10.908 22.0251 10.732C21.7211 10.556 21.3931 10.468 21.0411 10.468C20.6891 10.468 20.3611 10.556 20.0571 10.732C19.7531 10.9 19.5051 11.152 19.3131 11.488C19.1291 11.816 19.0371 12.208 19.0371 12.664C19.0371 13.12 19.1291 13.52 19.3131 13.864C19.5051 14.208 19.7531 14.472 20.0571 14.656C20.3691 14.832 20.6971 14.92 21.0411 14.92C21.3931 14.92 21.7211 14.832 22.0251 14.656C22.3291 14.48 22.5731 14.224 22.7571 13.888C22.9491 13.544 23.0451 13.144 23.0451 12.688ZM28.1179 10.504V14.164C28.1179 14.412 28.1739 14.592 28.2859 14.704C28.4059 14.808 28.6059 14.86 28.8859 14.86H29.7259V16H28.6459C28.0299 16 27.5579 15.856 27.2299 15.568C26.9019 15.28 26.7379 14.812 26.7379 14.164V10.504H25.9579V9.388H26.7379V7.744H28.1179V9.388H29.7259V10.504H28.1179ZM37.4519 16.084C36.8919 16.084 36.3879 15.988 35.9399 15.796C35.4919 15.596 35.1399 15.316 34.8839 14.956C34.6279 14.596 34.4999 14.176 34.4999 13.696H35.9639C35.9959 14.056 36.1359 14.352 36.3839 14.584C36.6399 14.816 36.9959 14.932 37.4519 14.932C37.9239 14.932 38.2919 14.82 38.5559 14.596C38.8199 14.364 38.9519 14.068 38.9519 13.708C38.9519 13.428 38.8679 13.2 38.6999 13.024C38.5399 12.848 38.3359 12.712 38.0879 12.616C37.8479 12.52 37.5119 12.416 37.0799 12.304C36.5359 12.16 36.0919 12.016 35.7479 11.872C35.4119 11.72 35.1239 11.488 34.8839 11.176C34.6439 10.864 34.5239 10.448 34.5239 9.928C34.5239 9.448 34.6439 9.028 34.8839 8.668C35.1239 8.308 35.4599 8.032 35.8919 7.84C36.3239 7.648 36.8239 7.552 37.3919 7.552C38.1999 7.552 38.8599 7.756 39.3719 8.164C39.8919 8.564 40.1799 9.116 40.2359 9.82H38.7239C38.6999 9.516 38.5559 9.256 38.2919 9.04C38.0279 8.824 37.6799 8.716 37.2479 8.716C36.8559 8.716 36.5359 8.816 36.2879 9.016C36.0399 9.216 35.9159 9.504 35.9159 9.88C35.9159 10.136 35.9919 10.348 36.1439 10.516C36.3039 10.676 36.5039 10.804 36.7439 10.9C36.9839 10.996 37.3119 11.1 37.7279 11.212C38.2799 11.364 38.7279 11.516 39.0719 11.668C39.4239 11.82 39.7199 12.056 39.9599 12.376C40.2079 12.688 40.3319 13.108 40.3319 13.636C40.3319 14.06 40.2159 14.46 39.9839 14.836C39.7599 15.212 39.4279 15.516 38.9879 15.748C38.5559 15.972 38.0439 16.084 37.4519 16.084ZM48.3061 12.532C48.3061 12.78 48.2901 13.004 48.2581 13.204H43.2061C43.2461 13.732 43.4421 14.156 43.7941 14.476C44.1461 14.796 44.5781 14.956 45.0901 14.956C45.8261 14.956 46.3461 14.648 46.6501 14.032H48.1261C47.9261 14.64 47.5621 15.14 47.0341 15.532C46.5141 15.916 45.8661 16.108 45.0901 16.108C44.4581 16.108 43.8901 15.968 43.3861 15.688C42.8901 15.4 42.4981 15 42.2101 14.488C41.9301 13.968 41.7901 13.368 41.7901 12.688C41.7901 12.008 41.9261 11.412 42.1981 10.9C42.4781 10.38 42.8661 9.98 43.3621 9.7C43.8661 9.42 44.4421 9.28 45.0901 9.28C45.7141 9.28 46.2701 9.416 46.7581 9.688C47.2461 9.96 47.6261 10.344 47.8981 10.84C48.1701 11.328 48.3061 11.892 48.3061 12.532ZM46.8781 12.1C46.8701 11.596 46.6901 11.192 46.3381 10.888C45.9861 10.584 45.5501 10.432 45.0301 10.432C44.5581 10.432 44.1541 10.584 43.8181 10.888C43.4821 11.184 43.2821 11.588 43.2181 12.1H46.8781ZM57.9563 9.28C58.4763 9.28 58.9403 9.388 59.3483 9.604C59.7643 9.82 60.0883 10.14 60.3203 10.564C60.5603 10.988 60.6803 11.5 60.6803 12.1V16H59.3243V12.304C59.3243 11.712 59.1763 11.26 58.8803 10.948C58.5843 10.628 58.1803 10.468 57.6683 10.468C57.1563 10.468 56.7483 10.628 56.4443 10.948C56.1483 11.26 56.0003 11.712 56.0003 12.304V16H54.6443V12.304C54.6443 11.712 54.4963 11.26 54.2003 10.948C53.9043 10.628 53.5003 10.468 52.9883 10.468C52.4763 10.468 52.0683 10.628 51.7643 10.948C51.4683 11.26 51.3203 11.712 51.3203 12.304V16H49.9523V9.388H51.3203V10.144C51.5443 9.872 51.8283 9.66 52.1723 9.508C52.5163 9.356 52.8843 9.28 53.2763 9.28C53.8043 9.28 54.2763 9.392 54.6923 9.616C55.1083 9.84 55.4283 10.164 55.6523 10.588C55.8523 10.188 56.1643 9.872 56.5883 9.64C57.0123 9.4 57.4683 9.28 57.9563 9.28ZM68.7091 9.388V16H67.3411V15.22C67.1251 15.492 66.8411 15.708 66.4891 15.868C66.1451 16.02 65.7771 16.096 65.3851 16.096C64.8651 16.096 64.3971 15.988 63.9811 15.772C63.5731 15.556 63.2491 15.236 63.0091 14.812C62.7771 14.388 62.6611 13.876 62.6611 13.276V9.388H64.0171V13.072C64.0171 13.664 64.1651 14.12 64.4611 14.44C64.7571 14.752 65.1611 14.908 65.6731 14.908C66.1851 14.908 66.5891 14.752 66.8851 14.44C67.1891 14.12 67.3411 13.664 67.3411 13.072V9.388H68.7091ZM70.3581 12.664C70.3581 12 70.4941 11.412 70.7661 10.9C71.0461 10.388 71.4221 9.992 71.8941 9.712C72.3741 9.424 72.9021 9.28 73.4781 9.28C73.9981 9.28 74.4501 9.384 74.8341 9.592C75.2261 9.792 75.5381 10.044 75.7701 10.348V9.388H77.1501V16H75.7701V15.016C75.5381 15.328 75.2221 15.588 74.8221 15.796C74.4221 16.004 73.9661 16.108 73.4541 16.108C72.8861 16.108 72.3661 15.964 71.8941 15.676C71.4221 15.38 71.0461 14.972 70.7661 14.452C70.4941 13.924 70.3581 13.328 70.3581 12.664ZM75.7701 12.688C75.7701 12.232 75.6741 11.836 75.4821 11.5C75.2981 11.164 75.0541 10.908 74.7501 10.732C74.4461 10.556 74.1181 10.468 73.7661 10.468C73.4141 10.468 73.0861 10.556 72.7821 10.732C72.4781 10.9 72.2301 11.152 72.0381 11.488C71.8541 11.816 71.7621 12.208 71.7621 12.664C71.7621 13.12 71.8541 13.52 72.0381 13.864C72.2301 14.208 72.4781 14.472 72.7821 14.656C73.0941 14.832 73.4221 14.92 73.7661 14.92C74.1181 14.92 74.4461 14.832 74.7501 14.656C75.0541 14.48 75.2981 14.224 75.4821 13.888C75.6741 13.544 75.7701 13.144 75.7701 12.688Z" fill="#044BD9"/>
<path d="M95 11H107.17L101.58 5.41L103 4L111 12L103 20L101.59 18.59L107.17 13H95V11Z" fill="#044BD9"/>
</svg>
